<svg xmlns="http://www.w3.org/2000/svg" aria-hidden="true">
  <symbol id="daily-echo" viewBox="0 0 24 24"><path d="M4 5.5h16v13H4z"/><path d="M7 9h5m-5 3h10m-10 3h7m3-6h.01"/></symbol>
  <symbol id="admin" viewBox="0 0 24 24"><path d="M12 3 5 6v5c0 4.4 2.9 8.4 7 10 4.1-1.6 7-5.6 7-10V6z"/><path d="m9.5 12 1.6 1.6 3.7-4"/></symbol>
  <symbol id="authorization" viewBox="0 0 24 24"><circle cx="8" cy="15" r="3"/><path d="m10.1 12.9 7.2-7.2 2 2-1.2 1.2 1.1 1.1-1.7 1.7-1.1-1.1-4.3 4.3"/></symbol>
  <symbol id="gallery" viewBox="0 0 24 24"><rect x="4" y="4" width="6" height="6" rx="1"/><rect x="14" y="4" width="6" height="6" rx="1"/><rect x="4" y="14" width="6" height="6" rx="1"/><path d="M14 20v-6h6v6z"/></symbol>
  <symbol id="big-news" viewBox="0 0 24 24"><path d="M5 4h10a4 4 0 0 1 0 8H5z"/><path d="M5 12h11a4 4 0 0 1 0 8H5z"/><path d="M5 4v16"/></symbol>
  <symbol id="tech" viewBox="0 0 24 24"><circle cx="6" cy="6" r="2"/><circle cx="18" cy="6" r="2"/><circle cx="12" cy="18" r="2"/><path d="m7.7 7.1 3.1 8.1m5.5-8.1-3.1 8.1M8 6h8"/></symbol>
  <symbol id="dashboard" viewBox="0 0 24 24"><path d="M4 19V9m5 10V5m5 14v-7m5 7V3"/><path d="M3 20h18"/></symbol>
  <symbol id="brain" viewBox="0 0 24 24"><circle cx="8" cy="8" r="2.5"/><circle cx="16" cy="8" r="2.5"/><circle cx="12" cy="16" r="2.5"/><path d="m10 9.3 1.1 4.2m2.9-4.2-1.1 4.2M10.5 8h3"/></symbol>
  <symbol id="ai-news" viewBox="0 0 24 24"><path d="m12 3 1.2 4.1L17 8.3l-3.8 1.2L12 14l-1.2-4.5L7 8.3l3.8-1.2zM5 15l.7 2.3L8 18l-2.3.7L5 21l-.7-2.3L2 18l2.3-.7zM19 15l.7 2.3L22 18l-2.3.7L19 21l-.7-2.3L16 18l2.3-.7z"/></symbol>
  <symbol id="astropaper" viewBox="0 0 24 24"><path d="M7 3h8l3 3v15H7z"/><path d="M15 3v4h4M10 12h5m-5 3h5m-5 3h3"/></symbol>
</svg>
